<svg aria-hidden="true" style="position:absolute;width:0;height:0;overflow:hidden" xmlns="http://www.w3.org/2000/svg">
    <defs>
        <symbol id="icon-logo" viewBox="0 0 176 32">
            <path
                d="M6.64 17.707 0 6.667h3.973l4.453 7.653h.053l4.453-7.653h3.973l-6.64 11.04v7.627H6.638v-7.627zM16.894 22.267V9.734l3.067-3.067h9.6l3.067 3.067v12.533l-3.067 3.067h-9.6l-3.067-3.067zm10.746-.027L29 20.88v-9.76l-1.36-1.36h-5.76l-1.36 1.36v9.76l1.36 1.36h5.76zM35.166 22.133V6.666h3.627v14.213l1.36 1.36h5.227l1.36-1.36V6.666h3.627v15.467l-3.2 3.2h-8.8l-3.2-3.2zM67.837 19.147v6.187H64.21v-5.36l-1.6-1.787h-5.813v7.147H53.17V6.667h11.707l2.853 2.88V15.2l-1.813 1.84 1.92 2.107zM56.797 15.2h6.427l.933-.933V10.64l-.933-.933h-6.427V15.2zM77.098 6.667h13.493v3.067h-9.867v4.72h9.093v3.013h-9.093v4.8h9.867v3.067H77.098V6.667zM92.603 6.667h3.253l8.32 12.667h.053V6.667h3.493v18.667h-3.253l-8.32-12.64h-.053v12.64h-3.493V6.667zM110.53 6.667h13.493v3.067h-9.867v4.72h9.093v3.013h-9.093v4.8h9.867v3.067H110.53V6.667zM140.703 19.147v6.187h-3.627v-5.36l-1.6-1.787h-5.814v7.147h-3.627V6.667h11.707l2.853 2.88V15.2l-1.813 1.84 1.92 2.107zM129.662 15.2h6.427l.933-.933V10.64l-.933-.933h-6.427V15.2zM143.097 22.267V9.734l3.067-3.067h9.28l3.013 3.013v2.853h-3.627v-1.52l-1.253-1.253h-5.493l-1.36 1.36v9.76l1.36 1.36h5.547l1.307-1.307v-2.907h-4v-3.093h7.52v7.333l-3.067 3.067h-9.227l-3.067-3.067zM165.104 17.707l-6.64-11.04h3.973l4.453 7.653h.053l4.453-7.653h3.973l-6.64 11.04v7.627h-3.627v-7.627z" />
        </symbol>
        <symbol id="icon-dumbbell" viewBox="0 0 32 32">
            <path
                d="M7.36 9.143H5.44c-.532 0-.96.459-.96 1.029v4.457h-.96c-.176 0-.32.154-.32.343v2.057c0 .188.144.343.32.343h.96v4.457c0 .57.428 1.028.96 1.028h1.92c.532 0 .96-.459.96-1.028V10.172c0-.57-.428-1.029-.96-1.029zm21.12 5.486h-.96v-4.457c0-.57-.428-1.029-.96-1.029h-1.92c-.532 0-.96.459-.96 1.029v11.657c0 .57.428 1.028.96 1.028h1.92c.532 0 .96-.459.96-1.028v-4.457h.96c.176 0 .32-.154.32-.343v-2.057c0-.189-.144-.343-.32-.343zM21.44 6.4h-1.92c-.532 0-.96.459-.96 1.029v7.2h-5.12v-7.2c0-.57-.428-1.029-.96-1.029h-1.92c-.532 0-.96.459-.96 1.029v17.143c0 .57.428 1.029.96 1.029h1.92c.532 0 .96-.459.96-1.029v-7.2h5.12v7.2c0 .57.428 1.029.96 1.029h1.92c.532 0 .96-.459.96-1.029V7.429c0-.57-.428-1.029-.96-1.029z" />
        </symbol>
        <symbol id="icon-run" width="24" height="24" viewBox="0 0 24 24" fill="none">
            <circle cx="12" cy="12" r="12" fill="#242424" />
            <path d="M18.8234 8.72544C18.6138 8.47504 18.2403 8.44212 17.9899 8.65092L16.349 10.0294L15.5943 8.15967C15.5675 8.08949 15.5267 8.03057 15.4799 7.97859C15.3257 7.63549 15.058 7.34091 14.6889 7.17023C14.5286 7.09745 14.3631 7.05846 14.1977 7.0394C14.1613 7.02034 14.1283 6.99521 14.0868 6.98222L11.199 6.17732C11.037 6.13314 10.8741 6.16173 10.7407 6.2397C10.5821 6.29342 10.4461 6.40865 10.3811 6.57587L9.29378 9.37178C9.17594 9.67589 9.3267 10.019 9.63168 10.1386C9.93492 10.2564 10.2789 10.1048 10.3976 9.79978L11.316 7.43882L12.6312 7.80444C12.5991 7.85643 12.5645 7.90495 12.5385 7.9604L10.8524 11.6149C10.8282 11.6686 10.8152 11.7232 10.7979 11.7787L8.7488 15.214L5.31955 16.3611C4.9314 16.6514 4.84909 17.1981 5.13587 17.5862C5.42439 17.9752 5.97282 18.0575 6.36011 17.7708L9.86907 16.5621C9.97651 16.4841 10.0545 16.3819 10.1134 16.2719C10.1576 16.2251 10.2078 16.1878 10.2416 16.1298L11.4633 14.0816L13.6319 15.9296L11.3116 18.5445C10.9919 18.9049 11.024 19.4603 11.3862 19.7791C11.7474 20.1005 12.3011 20.0667 12.6225 19.7046L15.5181 16.4426C15.6082 16.342 15.6619 16.2259 15.6983 16.1047C15.7199 16.0388 15.7199 15.9704 15.7251 15.9019C15.7251 15.8673 15.7381 15.8361 15.7355 15.804C15.7277 15.5649 15.6307 15.3327 15.4349 15.1672L13.4395 13.4656C13.5834 13.3287 13.7055 13.1658 13.7939 12.9743L15.0866 10.1749L15.5007 11.2779C15.5181 11.3758 15.551 11.472 15.6203 11.5525C15.6827 11.627 15.7624 11.6764 15.8473 11.7111C15.856 11.7154 15.8664 11.7163 15.8768 11.7189C15.9305 11.7379 15.9851 11.7561 16.0414 11.7587C16.1081 11.7648 16.1757 11.7561 16.2441 11.7371C16.2459 11.7362 16.2467 11.7362 16.2467 11.7362C16.2649 11.7319 16.2831 11.7353 16.3013 11.7275C16.3975 11.6912 16.4711 11.6296 16.5344 11.5577L18.8893 9.55892C19.1397 9.34838 19.034 8.97583 18.8234 8.72544Z" fill="#F4F4F4" />
            <path d="M15.8448 7.30102C16.7564 7.30102 17.4954 6.56206 17.4954 5.65051C17.4954 4.73896 16.7564 4 15.8448 4C14.9333 4 14.1943 4.73896 14.1943 5.65051C14.1943 6.56206 14.9333 7.30102 15.8448 7.30102Z" fill="#F4F4F4" />
        </symbol>
        <symbol id="icon-sun" viewBox="0 0 49 32">
            <path
                d="m14.316 13.621.365.376L10.196 1.09l5.344 12.573.018-.524.443-13.138.461 13.663 5.344-12.573-4.485 12.907 9.506-9.785-8.825 10.409 12.384-5.676-11.973 6.504 13.589-.8-13.504 1.721 12.959 4.184-13.211-3.294 10.579 8.603L17.691 18l6.77 11.86-7.554-11.373 2.047 13.515-2.953-13.345-2.953 13.345 2.047-13.515L7.542 29.86 14.312 18 3.178 25.864l10.579-8.603L.546 20.555l12.959-4.184L.001 14.65l13.589.8L1.617 8.946l12.384 5.676L5.176 4.213l9.141 9.41zm.934.571-.649.404-.46.612-.209.737.07.763.34.686.564.517.712.277h.763l.712-.277.564-.517.34-.686.07-.763-.209-.737-.46-.612-.649-.404-.75-.141-.75.141z" />
        </symbol>
        <symbol id="icon-facebook" viewBox="0 0 32 32">
            <path
                d="M19.52 4.64h.96v3.6h-1.2c-.48 0-.96 0-1.2.24s-.24.48-.24 1.04v1.28h2.64v3.04h-2.64v13.2h-4.08V13.76H11.6v-3.04h2.16V9.68c0-1.76.24-3.04.72-3.6.72-1.04 2.16-1.52 4.32-1.52.24.08.48.08.72.08z" />
        </symbol>
        <symbol id="icon-instagram" viewBox="0 0 32 32">
            <path
                d="M28.717 10.756a9.264 9.264 0 0 0-.596-3.145 6.547 6.547 0 0 0-3.743-3.737 9.42 9.42 0 0 0-3.108-.596c-1.368-.061-1.801-.078-5.273-.078s-3.917 0-5.274.078a9.418 9.418 0 0 0-3.106.596 6.541 6.541 0 0 0-3.743 3.737 9.288 9.288 0 0 0-.596 3.101c-.061 1.367-.08 1.8-.08 5.265s0 3.909.08 5.265a9.335 9.335 0 0 0 .596 3.104 6.548 6.548 0 0 0 3.744 3.735 9.37 9.37 0 0 0 3.106.639c1.369.061 1.803.08 5.274.08s3.916 0 5.274-.08a9.357 9.357 0 0 0 3.108-.595 6.555 6.555 0 0 0 3.743-3.737 9.35 9.35 0 0 0 .596-3.104c.061-1.365.08-1.798.08-5.265-.003-3.466-.003-3.906-.082-5.264zM15.99 22.531c-3.631 0-6.572-2.936-6.572-6.561s2.941-6.561 6.572-6.561c3.628 0 6.572 2.936 6.572 6.561s-2.944 6.561-6.572 6.561zm6.833-11.835a1.53 1.53 0 1 1 0-3.06 1.53 1.53 0 1 1 0 3.06z" />
            <path d="M15.992 19.976a4.004 4.004 0 1 0 0-8.009 4.004 4.004 0 0 0 0 8.009z" />
        </symbol>
        <symbol id="icon-youtube" viewBox="0 0 32 32">
            <path
                d="M24.24 6c-1.36-.08-4.16-.16-8.4-.16h-.56c-4.08 0-6.8.08-8.16.24-1.84.16-3.12.64-3.84 1.28-.64.56-1.12 1.6-1.28 2.96-.08.88-.16 2.72-.16 5.52v.4c0 2.64.08 4.48.24 5.36.24 1.28.64 2.24 1.44 2.8.8.64 2.16 1.04 4.08 1.2 1.36.08 4.16.16 8.4.16h.56c4.08 0 6.8-.08 8.16-.24 1.84-.16 3.12-.64 3.84-1.28.64-.56 1.12-1.6 1.28-2.96.08-.88.16-2.72.16-5.52v-.4c0-2.64-.08-4.48-.24-5.36-.24-1.28-.64-2.24-1.44-2.8-.8-.64-2.16-1.04-4.08-1.2zm-3.12 9.84-8.8 5.28V10.56l8.8 5.28z" />
        </symbol>
        <symbol id="icon-burger-menu" viewBox="0 0 32 32">
            <path stroke-linejoin="round" stroke-linecap="round" stroke-width="2"
                d="M28 13.333H4M28 8H4M28 18.667H4M28 24H4" />
        </symbol>
        <symbol id="icon-close" viewBox="0 0 32 32">
            <path stroke-linejoin="round" stroke-linecap="round" stroke-width="2.667"
                d="M22.667 9.333 9.334 22.666M9.333 9.333l13.333 13.333" />
        </symbol>
        <symbol id="icon-arrow" viewBox="0 0 32 32">
            <path
                d="M16.746 7.652v17.019h-1.811V7.652l-8.509 8.509-1.28-1.28L15.841 4.186l10.695 10.695-1.28 1.28-8.509-8.509z" />
        </symbol>
        <symbol id="icon-inverted-commas" viewBox="0 0 32 32">
            <path
                d="M8.201 17.469c1.546-.613 2.785-.452 3.719.481s1.21 2.421.831 4.463c-.292 1.517-.933 2.683-1.925 3.5-.963.787-2.085 1.181-3.369 1.181-1.75 0-2.96-.671-3.631-2.013-.671-1.371-.802-3.208-.394-5.512.233-1.254.613-2.523 1.137-3.806s1.225-2.596 2.1-3.938 2.013-2.508 3.413-3.5 2.946-1.633 4.637-1.925l-.437 4.638c-1.429.292-2.698 1.035-3.806 2.231-1.108 1.167-1.867 2.567-2.275 4.2zm13.169 0c1.546-.613 2.785-.452 3.719.481s1.21 2.421.831 4.463c-.292 1.517-.933 2.683-1.925 3.5-.963.787-2.085 1.181-3.369 1.181-1.75 0-2.96-.671-3.631-2.013-.671-1.371-.802-3.208-.394-5.512.233-1.254.613-2.523 1.137-3.806s1.225-2.596 2.1-3.938 2.013-2.508 3.413-3.5 2.946-1.633 4.637-1.925l-.437 4.638c-1.429.292-2.698 1.035-3.806 2.231-1.108 1.167-1.867 2.567-2.275 4.2z" />
        </symbol>
        <symbol id="icon-heart" viewBox="0 0 32 32">
            <path stroke-linejoin="round" stroke-linecap="round" stroke-width="2.4"
                d="M27.787 6.147a7.345 7.345 0 0 0-5.187-2.15 7.33 7.33 0 0 0-5.187 2.15L16 7.56l-1.413-1.413a7.333 7.333 0 0 0-10.374 0 7.333 7.333 0 0 0 0 10.374L16 28.308l11.787-11.787a7.345 7.345 0 0 0 2.15-5.187 7.33 7.33 0 0 0-2.15-5.187z" />
        </symbol>
        <symbol id="icon-trash" viewBox="0 0 32 32">
            <path stroke-linejoin="round" stroke-linecap="round" stroke-width="2.4"
                d="M21.333 8V6.933c0-1.493 0-2.24-.291-2.811a2.666 2.666 0 0 0-1.165-1.165c-.57-.291-1.317-.291-2.811-.291h-2.133c-1.493 0-2.24 0-2.811.291-.502.256-.91.664-1.165 1.165-.291.57-.291 1.317-.291 2.811V8m2.667 7.333V22m5.334-6.667V22M4 8h24m-2.667 0v14.933c0 2.24 0 3.36-.436 4.216a3.996 3.996 0 0 1-1.748 1.748c-.856.436-1.976.436-4.216.436h-5.867c-2.24 0-3.36 0-4.216-.436a3.996 3.996 0 0 1-1.748-1.748c-.436-.856-.436-1.976-.436-4.216V8" />
        </symbol>
        <symbol id="icon-search" viewBox="0 0 32 32">
            <path stroke-linejoin="round" stroke-linecap="round" stroke-width="2.667"
                d="M14.667 25.333c5.891 0 10.667-4.776 10.667-10.667S20.558 3.999 14.667 3.999 4 8.775 4 14.666s4.776 10.667 10.667 10.667zM28 28l-5.8-5.8" />
        </symbol>
        <symbol id="icon-star" viewBox="0 0 32 32">
            <path
                d="M13.826 3.262c.684-2.106 3.663-2.106 4.348 0l1.932 5.945a2.285 2.285 0 0 0 2.174 1.579h6.251c2.214 0 3.135 2.833 1.344 4.135l-5.057 3.674a2.286 2.286 0 0 0-.83 2.556l1.931 5.945c.684 2.106-1.726 3.857-3.517 2.555l-5.057-3.674a2.286 2.286 0 0 0-2.687 0l-5.057 3.674c-1.791 1.302-4.202-.45-3.517-2.555l1.932-5.945a2.287 2.287 0 0 0-.83-2.556l-5.057-3.674c-1.791-1.302-.871-4.135 1.344-4.135h6.251c.99 0 1.868-.638 2.174-1.579l1.932-5.945z" />
        </symbol>
        <symbol id="icon-start-arrow" width="16" height="16" fill="none" viewBox="0 0 16 16">
            <path stroke="#242424" stroke-linecap="round" stroke-linejoin="round" stroke-width="1.3" d="M7.5 14 14 7.5m0 0L7.5 1M14 7.5H1"/> 
        </symbol>
    </defs>
</svg>